<svg width="14" height="14" viewBox="0 0 14 14" fill="none" xmlns="http://www.w3.org/2000/svg">
<path fill-rule="evenodd" clip-rule="evenodd" d="M9.01062 4.31495C8.83934 4.18787 8.59629 4.20199 8.44097 4.35731C8.27011 4.52817 8.27011 4.80518 8.44097 4.97603L10.0274 6.5625H2.91699L2.85763 6.5665C2.64408 6.59547 2.47949 6.77852 2.47949 7C2.47949 7.24163 2.67537 7.4375 2.91699 7.4375H10.0274L8.44097 9.02398L8.39861 9.07305C8.27152 9.24432 8.28564 9.48738 8.44097 9.6427C8.61182 9.81355 8.88883 9.81355 9.05969 9.6427L11.3927 7.3097M11.3912 6.6888L11.393 6.69065C11.5623 6.85993 11.5639 7.13343 11.3977 7.30463C11.3961 7.30622 11.3946 7.3078 11.393 7.30936M11.3912 6.6888L9.05969 4.35731L9.01062 4.31495" fill="#0D6EFD"/>
</svg>
